<?xml version="1.0" standalone="no"?>
<!DOCTYPE svg PUBLIC "-//W3C//DTD SVG 20010904//EN"
 "http://www.w3.org/TR/2001/REC-SVG-20010904/DTD/svg10.dtd">
<svg version="1.0" xmlns="http://www.w3.org/2000/svg"
 width="260.000000pt" height="260.000000pt" viewBox="0 0 260.000000 260.000000"
 preserveAspectRatio="xMidYMid meet">
<metadata>
Created by potrace 1.11, written by Peter Selinger 2001-2013
</metadata>
<g transform="translate(0.000000,260.000000) scale(0.100000,-0.100000)"
fill="#000000" stroke="none">
<path d="M235 2590 c-50 -12 -105 -38 -111 -54 -3 -9 -10 -13 -15 -11 -12 8
-76 -83 -92 -132 -11 -34 -14 -225 -13 -1105 l1 -1063 22 -46 c24 -51 86 -123
96 -112 4 3 7 2 7 -4 0 -6 21 -21 47 -34 l48 -24 1075 1 c1072 0 1075 0 1120
21 47 22 127 90 123 104 -2 5 1 9 6 9 8 0 23 30 26 50 0 3 5 12 10 20 6 10 10
402 11 1087 l1 1072 -28 56 c-31 64 -82 114 -148 147 l-46 22 -1055 1 c-580 1
-1068 -2 -1085 -5z"/>
</g>
</svg>
